# xmcd
#
# Track frame offsets:
#	150
#	16016
#	31938
#	43095
#	56593
#	67360
#	76818
#	90343
#	98770
#	107085
#	111499
#	150908
#	167108
#	178878
#	191763
# Disc length: 2697 seconds
# Revision: 1
# Processed by: cddbd v1.5.1PL2 Copyright (c) Steve Scherf et al.
#
# Submitted via: libkcddb 0.21
#
DISCID=bd0a870f
DTITLE=Mousikoi gia krematoria - Best of 1997-2002
DYEAR=1903
DGENRE=Darkwave
TTITLE0=Θα πετάξω ψηλά
TTITLE1=Κοίταξε με πίσω
TTITLE2=Φιγούρα στο δάσος
TTITLE3=Ελ Μαστούτρο
TTITLE4=Νησιώτικο τσιφτετέλι
TTITLE5=Κεφαλονίτικο
TTITLE6=Στυμμένος μεσ' το βάθρο σου
TTITLE7=Μήνυμα χωρίς φραγή
TTITLE8=Φακές
TTITLE9=Πήραμε καφέ (λογοκρισία)
TTITLE10=Αιχμάλωτος της μοίρας σου
TTITLE11=Ελ Μαστούτρο (studio)
TTITLE12=Καταιγίδα
TTITLE13=Άσε με τώρα να σου πω
TTITLE14=Μικρή σιωπή
EXTD=
EXTT0=
EXTT1=
EXTT2=
EXTT3=
EXTT4=
EXTT5=
EXTT6=
EXTT7=
EXTT8=
EXTT9=
EXTT10=
EXTT11=
EXTT12=
EXTT13=
EXTT14=
PLAYORDER=
